<svg id="visual" viewBox="0 0 900 600" width="900" height="600" xmlns="http://www.w3.org/2000/svg" xmlns:xlink="http://www.w3.org/1999/xlink" version="1.1"><rect x="0" y="0" width="900" height="600" fill="#ffffff"></rect><defs><linearGradient id="grad1_0" x1="33.3%" y1="100%" x2="100%" y2="0%"><stop offset="20%" stop-color="#ffffff" stop-opacity="1"></stop><stop offset="80%" stop-color="#ffffff" stop-opacity="1"></stop></linearGradient></defs><defs><linearGradient id="grad2_0" x1="0%" y1="100%" x2="66.7%" y2="0%"><stop offset="20%" stop-color="#ffffff" stop-opacity="1"></stop><stop offset="80%" stop-color="#ffffff" stop-opacity="1"></stop></linearGradient></defs><g transform="translate(900, 600)"><path d="M-459.7 0C-412.1 -31.7 -364.4 -63.5 -359.5 -116.8C-354.6 -170.1 -392.3 -245 -364.9 -265.1C-337.4 -285.2 -244.7 -250.5 -202.2 -278.3C-159.7 -306.1 -167.4 -396.5 -142.1 -437.2C-116.7 -477.9 -58.4 -468.8 0 -459.7L0 0Z" fill="#4CED96"></path></g><g transform="translate(0, 0)"><path d="M459.7 0C457 50 454.2 99.9 437.2 142.1C420.2 184.2 388.8 218.4 360.8 262.2C332.8 305.9 308.1 359.1 263.3 362.4C218.5 365.8 153.5 319.3 106.3 327.2C59.1 335.1 29.5 397.4 0 459.7L0 0Z" fill="#4CED96"></path></g></svg>