<svg id="visual" viewBox="0 0 900 675" width="900" height="675" xmlns="http://www.w3.org/2000/svg" xmlns:xlink="http://www.w3.org/1999/xlink" version="1.1"><rect x="0" y="0" width="900" height="675" fill="#5AC1FB"></rect><path d="M0 485L21.5 486.3C43 487.7 86 490.3 128.8 491.7C171.7 493 214.3 493 257.2 480C300 467 343 441 385.8 435.7C428.7 430.3 471.3 445.7 514.2 447.3C557 449 600 437 642.8 428.5C685.7 420 728.3 415 771.2 425.2C814 435.3 857 460.7 878.5 473.3L900 486L900 676L878.5 676C857 676 814 676 771.2 676C728.3 676 685.7 676 642.8 676C600 676 557 676 514.2 676C471.3 676 428.7 676 385.8 676C343 676 300 676 257.2 676C214.3 676 171.7 676 128.8 676C86 676 43 676 21.5 676L0 676Z" fill="#4195c5"></path><path d="M0 526L21.5 521.7C43 517.3 86 508.7 128.8 504.8C171.7 501 214.3 502 257.2 500.7C300 499.3 343 495.7 385.8 490C428.7 484.3 471.3 476.7 514.2 483.3C557 490 600 511 642.8 509.5C685.7 508 728.3 484 771.2 476.7C814 469.3 857 478.7 878.5 483.3L900 488L900 676L878.5 676C857 676 814 676 771.2 676C728.3 676 685.7 676 642.8 676C600 676 557 676 514.2 676C471.3 676 428.7 676 385.8 676C343 676 300 676 257.2 676C214.3 676 171.7 676 128.8 676C86 676 43 676 21.5 676L0 676Z" fill="#1fa4c8"></path><path d="M0 528L21.5 532.3C43 536.7 86 545.3 128.8 545C171.7 544.7 214.3 535.3 257.2 527.7C300 520 343 514 385.8 512.3C428.7 510.7 471.3 513.3 514.2 522C557 530.7 600 545.3 642.8 550.7C685.7 556 728.3 552 771.2 544.5C814 537 857 526 878.5 520.5L900 515L900 676L878.5 676C857 676 814 676 771.2 676C728.3 676 685.7 676 642.8 676C600 676 557 676 514.2 676C471.3 676 428.7 676 385.8 676C343 676 300 676 257.2 676C214.3 676 171.7 676 128.8 676C86 676 43 676 21.5 676L0 676Z" fill="#00b1c5"></path><path d="M0 567L21.5 567.8C43 568.7 86 570.3 128.8 577.7C171.7 585 214.3 598 257.2 599C300 600 343 589 385.8 588.3C428.7 587.7 471.3 597.3 514.2 602.7C557 608 600 609 642.8 603C685.7 597 728.3 584 771.2 583.7C814 583.3 857 595.7 878.5 601.8L900 608L900 676L878.5 676C857 676 814 676 771.2 676C728.3 676 685.7 676 642.8 676C600 676 557 676 514.2 676C471.3 676 428.7 676 385.8 676C343 676 300 676 257.2 676C214.3 676 171.7 676 128.8 676C86 676 43 676 21.5 676L0 676Z" fill="#00bdba"></path><path d="M0 631L21.5 631.2C43 631.3 86 631.7 128.8 630C171.7 628.3 214.3 624.7 257.2 622.8C300 621 343 621 385.8 620C428.7 619 471.3 617 514.2 618.5C557 620 600 625 642.8 622.8C685.7 620.7 728.3 611.3 771.2 612.5C814 613.7 857 625.3 878.5 631.2L900 637L900 676L878.5 676C857 676 814 676 771.2 676C728.3 676 685.7 676 642.8 676C600 676 557 676 514.2 676C471.3 676 428.7 676 385.8 676C343 676 300 676 257.2 676C214.3 676 171.7 676 128.8 676C86 676 43 676 21.5 676L0 676Z" fill="#24c7a4"></path></svg>